Coordinates
version=1
nRows=21
nColumns=38
inDegrees=no

Units are S.I. units (second, meters, Newtons, ...)
If the header above contains a line with 'inDegrees', this indicates whether rotational values are in degrees (yes) or radians (no).

endheader
time	pelvis_tilt	pelvis_list	pelvis_rotation	pelvis_tx	pelvis_ty	pelvis_tz	hip_flexion_r	hip_adduction_r	hip_rotation_r	knee_angle_r	ankle_angle_r	subtalar_angle_r	mtp_angle_r	hip_flexion_l	hip_adduction_l	hip_rotation_l	knee_angle_l	ankle_angle_l	subtalar_angle_l	mtp_angle_l	lumbar_extension	lumbar_bending	lumbar_rotation	arm_flex_r	arm_add_r	arm_rot_r	elbow_flex_r	pro_sup_r	wrist_flex_r	wrist_dev_r	arm_flex_l	arm_add_l	arm_rot_l	elbow_flex_l	pro_sup_l	wrist_flex_l	wrist_dev_l
0	-2.82577	1.36122	-1.82021	0.91291	-0.779462	0.936571	-0.410687	0.00178716	-0.174839	0.0693435	0.118735	0	0	0.204891	0.0121985	-0.242076	0.106501	0.0389819	0	0	-0.330901	-0.0879261	0.133768	0.602712	-0.498238	0.102029	1.0431	1.5708	0	0	0.544636	-0.368346	-0.0354769	1.28901	1.5708	0	0
0.01	-2.78457	1.37023	-1.86483	0.912724	-0.770384	0.932611	-0.389145	-0.00465135	-0.238161	0.100301	0.186916	0	0	0.196615	0.0261192	-0.22264	0.040801	0.0184273	0	0	-0.326332	-0.0942529	0.122056	0.613579	-0.490219	0.11262	1.05214	1.5708	0	0	0.528079	-0.383365	-0.0557308	1.32234	1.5708	0	0
0.02	-2.79038	1.37309	-1.85797	0.911148	-0.761257	0.93049	-0.391061	-0.00529394	-0.244092	0.114795	0.200103	0	0	0.18683	0.0309637	-0.215976	5.157e-08	0.00809379	0	0	-0.321577	-0.0912918	0.119594	0.614218	-0.489955	0.114494	1.04952	1.5708	0	0	0.526524	-0.383912	-0.0546044	1.32162	1.5708	0	0
0.03	-2.84935	1.37591	-1.78731	0.9094	-0.753799	0.929058	-0.394112	0.0117178	-0.211747	0.140529	0.169825	0	0	0.194521	0.0262177	-0.21707	0	-0.000966607	0	0	-0.324812	-0.0758592	0.108784	0.618764	-0.488881	0.116367	1.04638	1.5708	0	0	0.528433	-0.382286	-0.0527105	1.31853	1.5708	0	0
0.04	-2.79002	1.38737	-1.8592	0.907632	-0.743117	0.926348	-0.372297	-0.00702737	-0.246054	0.166785	0.226736	0	0	0.207007	0.0356829	-0.22743	0	0.00374599	0	0	-0.284961	-0.077104	0.143357	0.592231	-0.505136	0.130785	1.0373	1.45999	0	0	0.543473	-0.348493	-0.0341143	1.24163	1.5708	0	0
0.05	-2.82919	1.37479	-1.81941	0.905946	-0.732992	0.926532	-0.394	-0.00825592	-0.228018	0.193006	0.199985	0	0	0.18698	0.0355282	-0.233137	0	0.00536052	0	0	-0.30885	-0.0687647	0.125805	0.607877	-0.510021	0.222458	1.06404	1.12981	0	0	0.524391	-0.359473	-0.0564658	1.27255	1.5708	0	0
0.06	-2.82886	1.38873	-1.81767	0.906044	-0.723055	0.921557	-0.38425	-0.00735502	-0.266584	0.19709	0.255673	0	0	0.193829	0.0304564	-0.231736	0	0.0141106	0	0	-0.296276	-0.0790425	0.113428	0.60945	-0.49735	0.213817	1.05709	1.15457	0	0	0.524338	-0.385117	-0.0513535	1.30854	1.5708	0	0
0.07	-2.78461	1.3687	-1.87028	0.904239	-0.711974	0.922195	-0.403918	-0.0332649	-0.282916	0.223915	0.270713	0	0	0.167947	0.0482526	-0.251182	0.00312111	0.00936744	0	0	-0.30938	-0.096077	0.12165	0.60537	-0.485811	0.108563	1.04062	1.5708	0	0	0.522318	-0.393238	0.0747135	1.30074	1.13834	0	0
0.08	-2.81951	1.38591	-1.83145	0.903492	-0.702301	0.9185	-0.386353	-0.0225695	-0.28456	0.250799	0.280413	0	0	0.205391	0.0294576	-0.269608	0.070692	0.0303097	0	0	-0.29189	-0.0841948	0.11673	0.605316	-0.4805	0.108624	1.03941	1.5708	0	0	0.524764	-0.385169	-0.0461094	1.30473	1.5708	0	0
0.09	-2.86816	1.37658	-1.78531	0.901797	-0.691742	0.91882	-0.392716	-0.026504	-0.271626	0.304358	0.248882	0	0	0.199206	0.0196619	-0.287661	0.115077	0.0387525	0	0	-0.300147	-0.0775196	0.12246	0.600478	-0.483071	0.10183	1.04058	1.5708	0	0	0.521622	-0.391929	0.0769768	1.29361	1.13497	0	0
0.1	-2.86225	1.37504	-1.79643	0.900461	-0.68102	0.917623	-0.410578	-0.0283455	-0.293386	0.277549	0.28068	0	0	0.199419	0.0202214	-0.295263	0.145972	0.0446691	0	0	-0.297867	-0.0804056	0.127224	0.595644	-0.482825	0.0975877	1.04265	1.5708	0	0	0.522295	-0.390671	0.0807862	1.28784	1.14348	0	0
0.11	-2.8058	1.37406	-1.85582	0.899644	-0.66942	0.915336	-0.404651	-0.0463504	-0.284229	0.316111	0.294811	0	0	0.200459	0.0312962	-0.299625	0.166094	0.0513533	0	0	-0.289742	-0.0957199	0.128263	0.586937	-0.478076	0.0904277	1.04464	1.5708	0	0	0.524039	-0.39713	0.0918239	1.28567	1.14257	0	0
0.12	-2.77689	1.37144	-1.88684	0.897844	-0.658637	0.91434	-0.401182	-0.0626557	-0.29213	0.352335	0.301738	0	0	0.195427	0.0408129	-0.295243	0.17209	0.0365139	0	0	-0.287746	-0.103707	0.128714	0.581105	-0.475819	0.0875027	1.04644	1.5708	0	0	0.525026	-0.398485	0.0971231	1.28239	1.14191	0	0
0.13	-2.75905	1.36764	-1.90512	0.895919	-0.647787	0.913698	-0.401442	-0.0749833	-0.293321	0.382883	0.300008	0	0	0.188521	0.0473951	-0.296616	0.176149	0.00200677	0	0	-0.288261	-0.109852	0.126917	0.57696	-0.473171	0.0790668	1.04765	1.5708	0	0	0.525345	-0.399435	0.0994614	1.28019	1.139	0	0
0.14	-2.74237	1.36434	-1.92251	0.893946	-0.636765	0.913089	-0.397571	-0.0886027	-0.294495	0.42047	0.296955	0	0	0.182314	0.0517115	-0.30736	0.181877	-0.0398359	0	0	-0.287988	-0.115934	0.125628	0.571689	-0.471107	0.0737408	1.04966	1.5708	0	0	0.525191	-0.40083	0.103043	1.27937	1.13652	0	0
0.15	-2.76976	1.35718	-1.89596	0.89119	-0.626174	0.914273	-0.402798	-0.0968718	-0.305565	0.449846	0.280212	0	0	0.16968	0.0482478	-0.320853	0.192646	-0.0720614	0	0	-0.297359	-0.111222	0.122553	0.572805	-0.47142	0.0752302	1.04994	1.5708	0	0	0.517691	-0.389396	0.0213422	1.3017	0.70862	0	0
0.16	-2.71264	1.35678	-1.95353	0.889808	-0.614519	0.912643	-0.377362	-0.121701	-0.297248	0.521382	0.277902	0	0	0.175228	0.0565879	-0.335364	0.217834	-0.0780349	0	0	-0.287933	-0.127884	0.12225	0.562804	-0.468067	0.0676	1.05097	1.5708	0	0	0.5231	-0.40435	0.109897	1.28107	1.1475	0	0
0.17	-2.70768	1.34997	-1.95875	0.887519	-0.604031	0.913641	-0.36267	-0.138849	-0.291597	0.582186	0.254218	0	0	0.168795	0.0595833	-0.336383	0.239884	-0.0786138	0	0	-0.28362	-0.134449	0.129597	0.553603	-0.469747	0.0612497	1.03485	1.5708	0	0	0.536462	-0.395321	0.128	1.25499	1.14253	0	0
0.18	-2.68728	1.34226	-1.97746	0.885202	-0.592937	0.914483	-0.342773	-0.161626	-0.284494	0.652452	0.223465	0	0	0.162845	0.0661234	-0.338568	0.264301	-0.0728297	0	0	-0.298067	-0.141361	0.114457	0.558711	-0.465614	0.0663797	1.04758	1.5708	0	0	0.520833	-0.405146	0.107894	1.2847	1.1388	0	0
0.19	-2.66978	1.33745	-1.99326	0.8828	-0.582457	0.915599	-0.310742	-0.184093	-0.27491	0.731494	0.174519	0	0	0.161357	0.0700826	-0.344389	0.291901	-0.065708	0	0	-0.301791	-0.148112	0.108798	0.55763	-0.464436	0.0640687	1.04671	1.5708	0	0	0.517358	-0.405427	0.104145	1.28986	1.13179	0	0
0.2	-2.65482	1.33517	-2.00563	0.880356	-0.572039	0.916571	-0.271822	-0.204294	-0.262328	0.812265	0.111559	0	0	0.158913	0.0734518	-0.347314	0.312839	-0.0528813	0	0	-0.302866	-0.152845	0.103149	0.555958	-0.46519	0.0707668	1.04578	1.5708	0	0	0.514531	-0.405455	0.10139	1.29323	1.13611	0	0
